<svg width="15" height="16" viewBox="0 0 15 16" fill="none" xmlns="http://www.w3.org/2000/svg">
<path fill-rule="evenodd" clip-rule="evenodd" d="M6.93236 0.625C10.7548 0.625 13.864 3.7342 13.864 7.55665C13.864 9.36006 13.1719 11.0049 12.0394 12.2393L14.2679 14.4632C14.4764 14.6717 14.4772 15.0091 14.2686 15.2177C14.1647 15.323 14.0273 15.375 13.8906 15.375C13.7547 15.375 13.618 15.323 13.5134 15.2191L11.258 12.97C10.0715 13.9202 8.56717 14.489 6.93236 14.489C3.10992 14.489 0 11.3791 0 7.55665C0 3.7342 3.10992 0.625 6.93236 0.625ZM6.93236 1.69272C3.69859 1.69272 1.06772 4.32287 1.06772 7.55665C1.06772 10.7904 3.69859 13.4213 6.93236 13.4213C10.1654 13.4213 12.7963 10.7904 12.7963 7.55665C12.7963 4.32287 10.1654 1.69272 6.93236 1.69272Z" fill="black" fill-opacity="0.4"/>
</svg>
